<svg
  width="32"
  height="32"
  viewBox="0 0 32 32"
  fill="none"
  xmlns="http://www.w3.org/2000/svg"
>
  <style>
    .favicon-square {
      fill: transparent;
      stroke: #1e293b;
    }
    .favicon-stroke {
      fill: #1e293b;
    }
    @media (prefers-color-scheme: dark) {
      .favicon-square {
        fill: #1e293b;
        stroke: #1e293b;
      }
      .favicon-stroke {
        fill: #f1f5f9;
      }
    }
  </style>
  <path
    class="favicon-square"
    d="M2.46154 0.75H29.5385C30.4837 0.75 31.25 1.51628 31.25 2.46154V29.5385C31.25 30.4837 30.4837 31.25 29.5385 31.25H2.46154C1.51628 31.25 0.75 30.4837 0.75 29.5385V2.46154C0.75 1.51628 1.51628 0.75 2.46154 0.75Z"
    stroke-width="1.5"
  />
  <path
    class="favicon-stroke"
    d="M14.9719 18.8307V10.7574H18.8521V24.8169H15.1267V22.2632H14.981C14.6652 23.087 14.14 23.749 13.4052 24.2494C12.6765 24.7498 11.7869 25 10.7364 25C9.80128 25 8.97848 24.7864 8.26802 24.3593C7.55755 23.9321 7.00194 23.3249 6.60116 22.5378C6.20646 21.7506 6.00607 20.8078 6 19.7094V10.7574H9.88022V19.0137C9.8863 19.8436 10.1079 20.4996 10.5451 20.9817C10.9824 21.4638 11.5683 21.7048 12.3031 21.7048C12.7707 21.7048 13.2079 21.598 13.6147 21.3844C14.0216 21.1648 14.3495 20.8413 14.5984 20.4142C14.8535 19.987 14.9779 19.4592 14.9719 18.8307Z"
  />
  <path
    class="favicon-stroke"
    d="M21.9558 24.8169V10.7574H25.836V24.8169H21.9558ZM23.905 8.94508C23.3282 8.94508 22.8333 8.75286 22.4204 8.36842C22.0135 7.97788 21.8101 7.51106 21.8101 6.96796C21.8101 6.43097 22.0135 5.97025 22.4204 5.58581C22.8333 5.19527 23.3282 5 23.905 5C24.4819 5 24.9738 5.19527 25.3806 5.58581C25.7935 5.97025 26 6.43097 26 6.96796C26 7.51106 25.7935 7.97788 25.3806 8.36842C24.9738 8.75286 24.4819 8.94508 23.905 8.94508Z"
  />
</svg>
